<?xml version="1.0" ?><!DOCTYPE svg  PUBLIC '-//W3C//DTD SVG 1.1//EN'  'http://www.w3.org/Graphics/SVG/1.1/DTD/svg11.dtd'><svg height="512px" id="Layer_1" style="enable-background:new 0 0 512 512;" version="1.1" viewBox="0 0 512 512" width="512px" xml:space="preserve" xmlns="http://www.w3.org/2000/svg" xmlns:xlink="http://www.w3.org/1999/xlink"><g id="Layer_1_1_"><circle cx="257.027" cy="264.817" r="243" style="fill:#91D8F0;"/></g><g id="Layer_2"><g id="Favorite"/><g><g><path d="M399.552,376.741c0,15.597-12.705,28.359-28.232,28.359H140.68     c-15.528,0-28.232-12.762-28.232-28.359V49.179c0-15.597,12.705-28.359,28.232-28.359h230.64     c15.528,0,28.232,12.762,28.232,28.359V376.741z" style="fill:#DB5180;"/><path d="M399.552,376.741     c0,15.597-12.705,28.359-28.232,28.359H140.68c-15.528,0-28.232-12.762-28.232-28.359V49.179     c0-15.597,12.705-28.359,28.232-28.359h230.64c15.528,0,28.232,12.762,28.232,28.359V376.741z" style="fill:#DB5C87;adobe-blending-mode:multiply;enable-background:new    ;"/></g><path d="M399.552,371.164c0,15.353-12.348,27.915-27.441,27.915H147.939    c-15.092,0-27.441-12.562-27.441-27.915V48.734c0-15.353,12.348-27.915,27.441-27.915h224.172    c15.092,0,27.441,12.562,27.441,27.915V371.164z" style="fill:#DB5180;"/><rect height="171.611" style="fill:#333333;" width="234.535" x="138.56" y="45.131"/><circle cx="259.529" cy="307.061" r="76.684" style="opacity:0.2;adobe-blending-mode:multiply;enable-background:new    ;"/><circle cx="261.105" cy="305.485" r="75.108" style="fill:#E6E6E6;"/><g><circle cx="261.105" cy="305.485" r="34.872" style="fill:#DB5180;"/><circle cx="261.105" cy="305.485" r="34.872" style="opacity:0.2;fill:#DB5C87;adobe-blending-mode:screen;enable-background:new    ;"/></g><path d="M295.977,305.485    c0,10.452-4.603,19.837-11.887,26.231c5.437-6.138,8.729-14.222,8.729-23.084c0-19.258-15.611-34.87-34.87-34.87    c-8.829,0-16.879,3.28-23.028,8.695c6.382-7.261,15.756-11.842,26.186-11.842C280.365,270.615,295.977,286.226,295.977,305.485z" style="opacity:0.1;adobe-blending-mode:multiply;enable-background:new    ;"/><path d="M214.739,305.612    c0,2.507-2.032,4.539-4.539,4.539h-12.55c-2.507,0-4.539-2.032-4.539-4.539l0,0c0-2.507,2.032-4.539,4.539-4.539h12.55    C212.706,301.073,214.739,303.105,214.739,305.612L214.739,305.612z" style="opacity:0.5;fill:#676764;adobe-blending-mode:multiply;enable-background:new    ;"/><path d="M330.358,305.612    c0,2.507-2.032,4.539-4.539,4.539h-12.55c-2.507,0-4.539-2.032-4.539-4.539l0,0c0-2.507,2.032-4.539,4.539-4.539h12.55    C328.326,301.073,330.358,303.105,330.358,305.612L330.358,305.612z" style="opacity:0.5;fill:#676764;adobe-blending-mode:multiply;enable-background:new    ;"/><path d="M271.919,242.329    c0,2.507-2.032,4.539-4.539,4.539h-12.55c-2.507,0-4.539-2.032-4.539-4.539l0,0c0-2.507,2.032-4.539,4.539-4.539h12.55    C269.887,237.789,271.919,239.822,271.919,242.329L271.919,242.329z" style="opacity:0.5;fill:#676764;adobe-blending-mode:multiply;enable-background:new    ;"/><path d="M271.919,368.896    c0,2.507-2.032,4.539-4.539,4.539h-12.55c-2.507,0-4.539-2.032-4.539-4.539l0,0c0-2.507,2.032-4.539,4.539-4.539h12.55    C269.887,364.357,271.919,366.389,271.919,368.896L271.919,368.896z" style="opacity:0.5;fill:#676764;adobe-blending-mode:multiply;enable-background:new    ;"/><path d="M184.407,205.047c0,2.707-2.106,4.902-4.704,4.902h-28.302c-2.598,0-4.704-2.195-4.704-4.902l0,0    c0-2.707,2.106-4.902,4.704-4.902h28.302C182.301,200.145,184.407,202.34,184.407,205.047L184.407,205.047z" style="fill:#B2D235;"/><path d="M184.407,189.286c0,2.707-2.106,4.902-4.704,4.902h-28.302c-2.598,0-4.704-2.195-4.704-4.902l0,0    c0-2.707,2.106-4.902,4.704-4.902h28.302C182.301,184.383,184.407,186.578,184.407,189.286L184.407,189.286z" style="fill:#B2D235;"/><path d="M184.407,173.524c0,2.707-2.106,4.902-4.704,4.902h-28.302c-2.598,0-4.704-2.195-4.704-4.902l0,0    c0-2.707,2.106-4.902,4.704-4.902h28.302C182.301,168.622,184.407,170.817,184.407,173.524L184.407,173.524z" style="fill:#B2D235;"/><path d="M184.407,157.762c0,2.707-2.106,4.902-4.704,4.902h-28.302c-2.598,0-4.704-2.195-4.704-4.902l0,0    c0-2.707,2.106-4.902,4.704-4.902h28.302C182.301,152.86,184.407,155.055,184.407,157.762L184.407,157.762z" style="fill:#B2D235;"/><path d="M229.779,205.047c0,2.707-2.106,4.902-4.704,4.902h-28.302c-2.598,0-4.704-2.195-4.704-4.902l0,0    c0-2.707,2.106-4.902,4.704-4.902h28.302C227.673,200.145,229.779,202.34,229.779,205.047L229.779,205.047z" style="fill:#B2D235;"/><path d="M229.779,189.286c0,2.707-2.106,4.902-4.704,4.902h-28.302c-2.598,0-4.704-2.195-4.704-4.902l0,0    c0-2.707,2.106-4.902,4.704-4.902h28.302C227.673,184.383,229.779,186.578,229.779,189.286L229.779,189.286z" style="fill:#B2D235;"/><path d="M229.779,173.524c0,2.707-2.106,4.902-4.704,4.902h-28.302c-2.598,0-4.704-2.195-4.704-4.902l0,0    c0-2.707,2.106-4.902,4.704-4.902h28.302C227.673,168.622,229.779,170.817,229.779,173.524L229.779,173.524z" style="fill:#B2D235;"/><path d="M229.779,157.762c0,2.707-2.106,4.902-4.704,4.902h-28.302c-2.598,0-4.704-2.195-4.704-4.902l0,0    c0-2.707,2.106-4.902,4.704-4.902h28.302C227.673,152.86,229.779,155.055,229.779,157.762L229.779,157.762z" style="fill:#B2D235;"/><path d="M229.779,142.001c0,2.707-2.106,4.902-4.704,4.902h-28.302c-2.598,0-4.704-2.195-4.704-4.902l0,0    c0-2.707,2.106-4.902,4.704-4.902h28.302C227.673,137.099,229.779,139.293,229.779,142.001L229.779,142.001z" style="fill:#B2D235;"/><path d="M229.779,126.239c0,2.707-2.106,4.902-4.704,4.902h-28.302c-2.598,0-4.704-2.195-4.704-4.902l0,0    c0-2.707,2.106-4.902,4.704-4.902h28.302C227.673,121.337,229.779,123.532,229.779,126.239L229.779,126.239z" style="fill:#B2D235;"/><path d="M229.779,110.477c0,2.707-2.106,4.902-4.704,4.902h-28.302c-2.598,0-4.704-2.195-4.704-4.902l0,0    c0-2.707,2.106-4.902,4.704-4.902h28.302C227.673,105.575,229.779,107.77,229.779,110.477L229.779,110.477z" style="fill:#B2D235;"/><path d="M229.779,94.716c0,2.707-2.106,4.902-4.704,4.902h-28.302c-2.598,0-4.704-2.195-4.704-4.902l0,0    c0-2.707,2.106-4.902,4.704-4.902h28.302C227.673,89.814,229.779,92.008,229.779,94.716L229.779,94.716z" style="fill:#B2D235;"/><path d="M275.15,205.047c0,2.707-2.106,4.902-4.704,4.902h-28.302c-2.598,0-4.704-2.195-4.704-4.902l0,0    c0-2.707,2.106-4.902,4.704-4.902h28.302C273.044,200.145,275.15,202.34,275.15,205.047L275.15,205.047z" style="fill:#B2D235;"/><path d="M275.15,189.286c0,2.707-2.106,4.902-4.704,4.902h-28.302c-2.598,0-4.704-2.195-4.704-4.902l0,0    c0-2.707,2.106-4.902,4.704-4.902h28.302C273.044,184.383,275.15,186.578,275.15,189.286L275.15,189.286z" style="fill:#B2D235;"/><path d="M275.15,173.524c0,2.707-2.106,4.902-4.704,4.902h-28.302c-2.598,0-4.704-2.195-4.704-4.902l0,0    c0-2.707,2.106-4.902,4.704-4.902h28.302C273.044,168.622,275.15,170.817,275.15,173.524L275.15,173.524z" style="fill:#B2D235;"/><path d="M275.15,157.762c0,2.707-2.106,4.902-4.704,4.902h-28.302c-2.598,0-4.704-2.195-4.704-4.902l0,0    c0-2.707,2.106-4.902,4.704-4.902h28.302C273.044,152.86,275.15,155.055,275.15,157.762L275.15,157.762z" style="fill:#B2D235;"/><path d="M275.15,142.001c0,2.707-2.106,4.902-4.704,4.902h-28.302c-2.598,0-4.704-2.195-4.704-4.902l0,0    c0-2.707,2.106-4.902,4.704-4.902h28.302C273.044,137.099,275.15,139.293,275.15,142.001L275.15,142.001z" style="fill:#B2D235;"/><path d="M275.15,126.239c0,2.707-2.106,4.902-4.704,4.902h-28.302c-2.598,0-4.704-2.195-4.704-4.902l0,0    c0-2.707,2.106-4.902,4.704-4.902h28.302C273.044,121.337,275.15,123.532,275.15,126.239L275.15,126.239z" style="fill:#B2D235;"/><path d="M275.15,110.477c0,2.707-2.106,4.902-4.704,4.902h-28.302c-2.598,0-4.704-2.195-4.704-4.902l0,0    c0-2.707,2.106-4.902,4.704-4.902h28.302C273.044,105.575,275.15,107.77,275.15,110.477L275.15,110.477z" style="fill:#B2D235;"/><path d="M275.15,94.716c0,2.707-2.106,4.902-4.704,4.902h-28.302c-2.598,0-4.704-2.195-4.704-4.902l0,0    c0-2.707,2.106-4.902,4.704-4.902h28.302C273.044,89.814,275.15,92.008,275.15,94.716L275.15,94.716z" style="fill:#B2D235;"/><path d="M275.15,78.954c0,2.707-2.106,4.902-4.704,4.902h-28.302c-2.598,0-4.704-2.195-4.704-4.902l0,0    c0-2.707,2.106-4.902,4.704-4.902h28.302C273.044,74.052,275.15,76.247,275.15,78.954L275.15,78.954z" style="fill:#B2D235;"/><path d="M320.522,205.047c0,2.707-2.106,4.902-4.704,4.902h-28.302c-2.598,0-4.704-2.195-4.704-4.902l0,0    c0-2.707,2.106-4.902,4.704-4.902h28.302C318.416,200.145,320.522,202.34,320.522,205.047L320.522,205.047z" style="fill:#B2D235;"/><path d="M320.522,189.286c0,2.707-2.106,4.902-4.704,4.902h-28.302c-2.598,0-4.704-2.195-4.704-4.902l0,0    c0-2.707,2.106-4.902,4.704-4.902h28.302C318.416,184.383,320.522,186.578,320.522,189.286L320.522,189.286z" style="fill:#B2D235;"/><path d="M320.522,173.524c0,2.707-2.106,4.902-4.704,4.902h-28.302c-2.598,0-4.704-2.195-4.704-4.902l0,0    c0-2.707,2.106-4.902,4.704-4.902h28.302C318.416,168.622,320.522,170.817,320.522,173.524L320.522,173.524z" style="fill:#B2D235;"/><path d="M365.894,205.047c0,2.707-2.106,4.902-4.704,4.902h-28.302c-2.598,0-4.704-2.195-4.704-4.902l0,0    c0-2.707,2.106-4.902,4.704-4.902h28.302C363.788,200.145,365.894,202.34,365.894,205.047L365.894,205.047z" style="fill:#B2D235;"/><path d="M365.894,189.286c0,2.707-2.106,4.902-4.704,4.902h-28.302c-2.598,0-4.704-2.195-4.704-4.902l0,0    c0-2.707,2.106-4.902,4.704-4.902h28.302C363.788,184.383,365.894,186.578,365.894,189.286L365.894,189.286z" style="fill:#B2D235;"/><path d="M365.894,173.524c0,2.707-2.106,4.902-4.704,4.902h-28.302c-2.598,0-4.704-2.195-4.704-4.902l0,0    c0-2.707,2.106-4.902,4.704-4.902h28.302C363.788,168.622,365.894,170.817,365.894,173.524L365.894,173.524z" style="fill:#B2D235;"/><path d="M365.894,157.762c0,2.707-2.106,4.902-4.704,4.902h-28.302c-2.598,0-4.704-2.195-4.704-4.902l0,0    c0-2.707,2.106-4.902,4.704-4.902h28.302C363.788,152.86,365.894,155.055,365.894,157.762L365.894,157.762z" style="fill:#B2D235;"/><path d="M365.894,142.001c0,2.707-2.106,4.902-4.704,4.902h-28.302c-2.598,0-4.704-2.195-4.704-4.902l0,0    c0-2.707,2.106-4.902,4.704-4.902h28.302C363.788,137.099,365.894,139.293,365.894,142.001L365.894,142.001z" style="fill:#B2D235;"/><path d="M365.894,126.239c0,2.707-2.106,4.902-4.704,4.902h-28.302c-2.598,0-4.704-2.195-4.704-4.902l0,0    c0-2.707,2.106-4.902,4.704-4.902h28.302C363.788,121.337,365.894,123.532,365.894,126.239L365.894,126.239z" style="fill:#B2D235;"/></g></g></svg>